<?xml version="1.0" encoding="UTF-8" standalone="no"?>
<svg
   width="300mm"
   height="150mm"
   viewBox="0 0 1133.8583 566.92915"
   aria-hidden="true"
   role="img"
   class="iconify iconify--twemoji"
   preserveAspectRatio="xMidYMid"
   version="1.1"
   id="svg38"
   sodipodi:docname="name_and_logo_sideways.svg"
   inkscape:version="1.2.2 (b0a8486541, 2022-12-01)"
   xmlns:inkscape="http://www.inkscape.org/namespaces/inkscape"
   xmlns:sodipodi="http://sodipodi.sourceforge.net/DTD/sodipodi-0.dtd"
   xmlns:xlink="http://www.w3.org/1999/xlink"
   xmlns="http://www.w3.org/2000/svg"
   xmlns:svg="http://www.w3.org/2000/svg">
  <defs
     id="defs42" />
  <sodipodi:namedview
     id="namedview40"
     pagecolor="#ffffff"
     bordercolor="#666666"
     borderopacity="1.0"
     inkscape:pageshadow="2"
     inkscape:pageopacity="0.0"
     inkscape:pagecheckerboard="0"
     showgrid="false"
     inkscape:zoom="0.60567799"
     inkscape:cx="304.61731"
     inkscape:cy="504.39343"
     inkscape:window-width="1920"
     inkscape:window-height="1052"
     inkscape:window-x="0"
     inkscape:window-y="0"
     inkscape:window-maximized="1"
     inkscape:current-layer="layer2"
     fit-margin-top="20"
     fit-margin-left="20"
     fit-margin-right="20"
     fit-margin-bottom="20"
     units="mm"
     inkscape:document-units="mm"
     inkscape:showpageshadow="2"
     inkscape:deskcolor="#d1d1d1" />
  <g
     inkscape:groupmode="layer"
     id="layer2"
     inkscape:label="Layer 1"
     transform="translate(876.49876,-174.04489)">
    <g
       id="g1125"
       transform="translate(26.542225,30.464569)">
      <g
         id="layer2-5"
         inkscape:label="Layer 1"
         transform="translate(-799.36602,202.30501)">
        <circle
           style="fill:#ffffff;fill-opacity:1;stroke:#6d451e;stroke-width:8;stroke-linejoin:round;stroke-opacity:1"
           id="path854"
           cx="175.86726"
           cy="224.73988"
           r="249" />
        <g
           id="g30643"
           transform="translate(54.543871,243.41982)"
           inkscape:label="icon">
          <g
             id="g16875"
             inkscape:label="left"
             transform="translate(-116.19297,-899.60472)">
            <path
               id="path3574"
               style="fill:#6cba0e;fill-opacity:1;stroke:none;stroke-width:0.999998px;stroke-linecap:butt;stroke-linejoin:miter;stroke-opacity:1"
               d="m 237.51636,670.01016 c 0,0 -61.4081,42.46266 -52.19382,75.61433 7.50874,27.01538 52.19382,35.57515 52.19382,35.57515 0,0 44.68507,-8.55977 52.19381,-35.57515 9.21428,-33.15167 -52.19381,-75.61433 -52.19381,-75.61433 z"
               inkscape:label="leaf big top" />
            <path
               id="path7063"
               style="fill:#6cba0e;fill-opacity:1;stroke:none;stroke-width:0.999998px;stroke-linecap:butt;stroke-linejoin:miter;stroke-opacity:1"
               d="m 70.616051,864.88066 c 0,0 64.536969,37.53682 90.628609,15.10554 21.26213,-18.2793 10.01735,-62.36537 10.01735,-62.36537 0,0 -26.74097,-36.80957 -54.38613,-32.12372 -33.924492,5.7502 -46.259829,79.38355 -46.259829,79.38355 z"
               inkscape:label="leaf big bottom" />
            <path
               id="path20107"
               style="fill:#6cba0e;fill-opacity:1;stroke:none;stroke-width:1px;stroke-linecap:butt;stroke-linejoin:miter;stroke-opacity:1"
               d="m 67.862194,924.26232 c 0,0 27.093948,11.49863 36.192826,1.43809 7.41469,-8.19836 0.84199,-24.88718 0.84199,-24.88718 0,0 -12.274855,-13.07845 -22.856644,-9.88209 -12.985332,3.92239 -14.178172,33.33118 -14.178172,33.33118 z"
               inkscape:label="leaf small bottom" />
            <path
               id="path25632"
               style="fill:#6cba0e;fill-opacity:1;stroke:none;stroke-width:1px;stroke-linecap:butt;stroke-linejoin:miter;stroke-opacity:1"
               d="m 165.01346,656.1849 c 0,0 -19.11938,22.37745 -12.2635,34.08219 5.58687,9.53822 23.48005,8.29264 23.48005,8.29264 0,0 16.16621,-7.7699 16.30258,-18.82306 0.16732,-13.56377 -27.51913,-23.55177 -27.51913,-23.55177 z"
               inkscape:label="leaf small top" />
            <path
               id="path26300"
               style="fill:#a6c742;fill-opacity:1;stroke:none;stroke-width:1px;stroke-linecap:butt;stroke-linejoin:miter;stroke-opacity:1"
               d="m 114.80179,706.78601 c 0,0 -13.05079,40.67966 2.69081,52.50629 12.82785,9.63755 36.08543,-2.06259 36.08543,-2.06259 0,0 17.28728,-19.46681 11.27245,-34.34157 -7.38105,-18.25341 -50.04869,-16.10213 -50.04869,-16.10213 z"
               inkscape:label="leaf medium top" />
            <path
               id="path28371"
               style="fill:#6cba0e;fill-opacity:1;stroke:none;stroke-width:1px;stroke-linecap:butt;stroke-linejoin:miter;stroke-opacity:1"
               d="m 61.649099,761.53434 c 0,0 6.369006,28.73562 19.843011,30.30254 10.979999,1.27687 20.75158,-13.7642 20.75158,-13.7642 0,0 3.52135,-17.58743 -5.224944,-24.34711 -10.732945,-8.29505 -35.369647,7.80877 -35.369647,7.80877 z"
               inkscape:label="leaf small middle" />
            <path
               id="path28397"
               style="fill:#a6c742;fill-opacity:1;stroke:none;stroke-width:1px;stroke-linecap:butt;stroke-linejoin:miter;stroke-opacity:1"
               d="m 117.90283,953.65847 c 0,0 42.02894,7.66329 51.71354,-9.47951 7.89201,-13.96969 -6.72638,-35.51293 -6.72638,-35.51293 0,0 -21.54492,-14.61585 -35.51371,-6.7222 -17.14165,9.68662 -9.47345,51.71464 -9.47345,51.71464 z"
               inkscape:label="leaf medium bottom" />
          </g>
          <path
             style="display:inline;fill:#6d451e;fill-opacity:1;stroke-width:1"
             d="m 70.760679,204.42738 c -4.28342,-2.1125 -5.28596,-5.4357 -4.64934,-15.4115 0.70031,-10.9738 3.44025,-21.1977 8.45794,-31.5604 7.49926,-15.4877 19.27112,-28.1919 38.408541,-41.4507 13.89802,-9.6288 23.19628,-17.363997 27.76453,-23.096947 l 3.72276,-4.67186 -15.54967,-0.46146 c -16.15257,-0.47937 -18.3473,-0.98292 -21.03993,-4.82714 -1.86579,-2.66376 -1.82917,-8.03861 0.0733,-10.75479 2.90058,-4.14109 6.22606,-4.72244 27.01392,-4.72244 21.3893,0 19.49442,0.56585 20.86215,-6.22976 l 0.60369,-2.99952 h -26.40641 c -30.193031,0 -31.866171,-0.30189 -34.341201,-6.19654 -1.27969,-3.04778 -1.30493,-3.96591 -0.19752,-7.18591 2.28255,-6.63705 3.68083,-6.91892 34.337631,-6.92058 h 26.60751 l -0.60369,-2.99951 c -1.36773,-6.79561 0.52715,-6.22977 -20.86215,-6.22977 -20.78786,0 -24.11334,-0.58135 -27.01392,-4.72253 -2.43691,-3.47916 -1.93421,-8.61147 1.18582,-12.10632 l 2.69083,-3.0140905 16.35153,-0.46146 16.35154,-0.46146 -4.2495,-5.21265 c -2.33722,-2.86695997 -5.93752,-6.65753 -8.00065,-8.42349 l -3.75116,-3.21085 7.90049,-5.6511595 c 4.34526,-3.10814 8.2582,-5.65115 8.69542,-5.65115 1.44638,0 11.67317,11.5967595 16.10289,18.2600095 5.54378,8.33904 10.30688,18.6443605 12.80436,27.7031705 2.95968,10.73531 2.93865,33.53772 -0.041,44.48374 -4.46433,16.40001 -15.23043,34.173567 -26.70601,44.088267 -2.91876,2.5218 -11.59607,9.1041 -19.28293,14.6274 -7.68684,5.5234 -15.78553,11.7245 -17.99709,13.7805 -4.55556,4.2349 -11.865191,12.3872 -11.867281,13.2353 -7.5e-4,0.3093 6.193441,0.438 13.764881,0.2861 10.50788,-0.2108 14.53255,0.044 17.00376,1.0766 7.77253,3.2476 8.66354,13.3005 1.55123,17.5018 -2.21845,1.3105 -5.57703,1.5407 -22.47725,1.5407 -21.970621,0 -20.013711,-0.5701 -21.382301,6.2298 l -0.60369,2.9995 h 25.944951 c 27.83334,0 30.57166,0.3847 33.60994,4.7225 3.18509,4.5474 1.33432,11.8079 -3.60772,14.153 -4.50102,2.1359 -66.835261,2.0896 -71.179211,-0.053 z m 91.348421,-0.2706 c -3.7594,-2.353 -4.89643,-4.5395 -4.93647,-9.4927 -0.0576,-7.1254 -2.49698,-18.0284 -5.68151,-25.3942 -4.16769,-9.6399 -9.1555,-17.0001 -16.55745,-24.4329 l -6.13243,-6.1579 7.44468,-5.2401 c 4.09457,-2.8821 7.93011,-5.4264 8.52342,-5.6541 1.47477,-0.5659 10.54877,9.4057 16.25762,17.8659 9.40604,13.9391 14.40122,28.3764 15.28715,44.1839 0.51982,9.2747 0.51267,9.3157 -2.14117,12.2608 -3.45731,3.8367 -7.99012,4.6112 -12.06384,2.0613 z M 90.770709,110.18168 C 80.178969,98.622703 72.331929,84.686853 68.382699,70.422033 c -1.64091,-5.92704 -1.96706,-9.63001 -1.96706,-22.33337 0,-18.08838 1.43524,-24.63609 8.59792,-39.2244805 8.29193,-16.8884 16.7336,-25.6295995 42.105521,-43.5994695 26.61196,-18.84814 38.07302,-36.28674 39.79532,-60.55065 0.51847,-7.304373 0.89092,-8.628563 3.13251,-11.137343 2.15378,-2.41049 3.20444,-2.84731 6.84866,-2.84731 3.73456,0 4.67772,0.41761 7.12235,3.15362 l 2.81775,3.15362 -0.52156,9.305913 c -0.62994,11.2397 -3.24188,21.43875 -8.04305,31.40633 -8.77809,18.22392 -17.31211,27.26046 -42.56763,45.07426 -19.10146,13.4730495 -26.917671,21.8429995 -33.588371,35.9679 -5.05733,10.70873 -6.38875,17.09013 -6.30519,30.22053 0.0626,9.82485 0.43212,12.63203 2.49099,18.92003 3.4858,10.64588 10.11187,21.71672 17.884111,29.88094 3.68407,3.869827 6.59921,7.310027 6.47808,7.644927 -0.32022,0.8853 -14.493571,10.9277 -15.422851,10.9277 -0.4318,0 -3.34307,-2.7916 -6.46949,-6.2035 z m 0.46816,-147.181927 c -15.46478,-16.9797 -23.91772,-35.94081 -25.13738,-56.38667 -0.99446,-16.670593 -1.79774,-16.345133 40.342301,-16.345133 35.3319,0 37.32361,0.26001 39.55802,5.164 2.76969,6.078793 -9.2e-4,12.474563 -6.14386,14.180553 -1.95723,0.54359 -14.20301,0.95177 -28.64212,0.95471 l -25.223111,0.006 0.60369,2.99952 c 1.36783,6.79612 -0.5344,6.22976 20.923761,6.22976 21.06833,0 24.21706,0.60213 26.61908,5.09035 1.59392,2.97825 1.38533,7.4373 -0.48116,10.28591 -2.6775,4.0864 -6.77769,5.06277 -20.63808,4.91454 -6.91638,-0.074 -13.122671,-0.10117 -13.791751,-0.0604 -1.71773,0.10456 1.765271,4.79305 8.775241,11.81244 l 5.73165,5.73937 -7.56812,5.21849 c -4.16246,2.87018 -8.031561,5.39815 -8.597981,5.61773 -0.56642,0.2196 -3.415,-2.21954 -6.33018,-5.42029 z"
             id="path5126"
             inkscape:label="trunk" />
          <use
             x="0"
             y="0"
             xlink:href="#g16875"
             id="use16969"
             transform="matrix(-1,0,0,1,242.64678,2.5319295e-6)"
             width="100%"
             height="100%"
             inkscape:label="right" />
        </g>
      </g>
      <text
         xml:space="preserve"
         style="font-size:85.3333px;line-height:1.25;font-family:sans-serif;letter-spacing:0px;word-spacing:0px;display:none"
         x="-303.30804"
         y="287.74704"
         id="text975"
         inkscape:label="text"><tspan
           sodipodi:role="line"
           id="tspan973"
           x="-303.30804"
           y="287.74704"
           style="font-style:normal;font-variant:normal;font-weight:normal;font-stretch:normal;font-size:85.3333px;font-family:Roboto;-inkscape-font-specification:Roboto"><tspan
   style="font-style:normal;font-variant:normal;font-weight:bold;font-stretch:normal;font-family:Roboto;-inkscape-font-specification:'Roboto Bold'"
   id="tspan965">E</tspan>ncapsulated<tspan
   style="font-style:normal;font-variant:normal;font-weight:bold;font-stretch:normal;font-family:Roboto;-inkscape-font-specification:'Roboto Bold'"
   id="tspan967"></tspan></tspan><tspan
           sodipodi:role="line"
           x="-303.30804"
           y="396.01505"
           style="font-style:normal;font-variant:normal;font-weight:normal;font-stretch:normal;font-size:85.3333px;font-family:Roboto;-inkscape-font-specification:Roboto"
           id="tspan1031"><tspan
   style="font-style:normal;font-variant:normal;font-weight:bold;font-stretch:normal;font-family:Roboto;-inkscape-font-specification:'Roboto Bold'"
   id="tspan1033">S</tspan>equencing<tspan
   style="font-style:normal;font-variant:normal;font-weight:bold;font-stretch:normal;font-family:Roboto;-inkscape-font-specification:'Roboto Bold'"
   id="tspan969"></tspan></tspan><tspan
           sodipodi:role="line"
           x="-303.30804"
           y="504.28302"
           style="font-style:normal;font-variant:normal;font-weight:normal;font-stretch:normal;font-size:85.3333px;font-family:Roboto;-inkscape-font-specification:Roboto"
           id="tspan1037"><tspan
   style="font-style:normal;font-variant:normal;font-weight:bold;font-stretch:normal;font-family:Roboto;-inkscape-font-specification:'Roboto Bold'"
   id="tspan1039">P</tspan>ipeline<tspan
   style="font-style:normal;font-variant:normal;font-weight:bold;font-stretch:normal;font-family:Roboto;-inkscape-font-specification:'Roboto Bold'"
   id="tspan971"></tspan></tspan><tspan
           sodipodi:role="line"
           x="-303.30804"
           y="612.55103"
           style="font-style:normal;font-variant:normal;font-weight:normal;font-stretch:normal;font-size:85.3333px;font-family:Roboto;-inkscape-font-specification:Roboto"
           id="tspan1042"><tspan
   style="font-style:normal;font-variant:normal;font-weight:bold;font-stretch:normal;font-family:Roboto;-inkscape-font-specification:'Roboto Bold'"
   id="tspan1044">E</tspan>ngine</tspan></text>
      <g
         aria-label="Encapsulated
Sequencing
Pipeline
Engine"
         id="text1179"
         style="font-size:85.3333px;line-height:1.25;letter-spacing:0px;word-spacing:0px"
         inkscape:label="text_path">
        <path
           d="M -297.89138,287.74704 V 227.0804 h 40.58332 v 10.12499 h -28.04166 v 14.45833 h 23.95832 v 9.79166 h -23.95832 v 16.20833 h 28.16666 v 10.08333 z"
           style="font-weight:bold;font-family:Roboto;-inkscape-font-specification:'Roboto Bold'"
           id="path1326" />
        <path
           d="m -230.72474,248.33039 q -3.70833,0 -6.54166,2 -2.83334,2 -4.45834,5.20833 v 32.20832 h -7.70833 v -45.08331 h 7.29167 l 0.25,5.62499 q 5.125,-6.45833 13.45833,-6.45833 6.62499,0 10.49999,3.70833 3.91667,3.70834 3.95833,12.45833 v 29.74999 h -7.74999 v -29.62499 q 0,-5.29166 -2.33334,-7.54166 -2.29166,-2.25 -6.66666,-2.25 z"
           style="font-family:Roboto;-inkscape-font-specification:Roboto"
           id="path1328" />
        <path
           d="m -184.26643,282.24704 q 4.125,0 7.20833,-2.45833 3.125,-2.45833 3.41667,-6.29166 h 7.33333 q -0.29167,6.04166 -5.54166,10.58332 -5.25,4.5 -12.41667,4.5 -10.16666,0 -15.12499,-6.70833 -4.91666,-6.70833 -4.91666,-15.79166 v -1.75 q 0,-9.08333 4.91666,-15.79166 4.95833,-6.70833 15.12499,-6.70833 7.91667,0 12.79167,4.70833 4.87499,4.66667 5.16666,11.625 h -7.33333 q -0.29167,-4.16667 -3.16667,-7.08333 -2.83333,-2.91667 -7.45833,-2.91667 -4.74999,0 -7.45833,2.41667 -2.66666,2.41666 -3.79166,6.125 -1.08333,3.70833 -1.08333,7.62499 v 1.75 q 0,3.95833 1.08333,7.66667 1.08333,3.70833 3.75,6.12499 2.70833,2.375 7.49999,2.375 z"
           style="font-family:Roboto;-inkscape-font-specification:Roboto"
           id="path1330" />
        <path
           d="m -129.80811,287.74704 q -0.75,-1.625 -1.08334,-4.75 -2.16666,2.29167 -5.41666,3.95833 -3.25,1.625 -7.41667,1.625 -6.91666,0 -11.08332,-3.875 -4.16667,-3.87499 -4.16667,-9.49999 0,-7.25 5.5,-11 5.5,-3.79166 14.79166,-3.79166 h 7.625 v -3.58333 q 0,-4 -2.41667,-6.375 -2.375,-2.41667 -7.08333,-2.41667 -4.375,0 -7.08333,2.16667 -2.66667,2.125 -2.66667,4.95833 h -7.70833 q 0,-4.83333 4.875,-9.08333 4.875,-4.25 13.04166,-4.25 7.33333,0 12.04166,3.75 4.70834,3.75 4.70834,11.33333 v 20.24999 q 0,6.25 1.58333,9.91666 v 0.66667 z m -12.79167,-5.91666 q 4.16667,0 7.20833,-2.08334 3.08334,-2.08333 4.33334,-4.62499 v -9.29167 h -7.16667 q -12.99999,0.25 -12.99999,8.33333 0,3.20833 2.16666,5.45833 2.16667,2.20834 6.45833,2.20834 z"
           style="font-family:Roboto;-inkscape-font-specification:Roboto"
           id="path1332" />
        <path
           d="m -90.64147,288.58037 q -8.124997,0 -12.87499,-5.20833 v 21.70833 h -7.75 v -62.41664 h 7.08333 l 0.375,4.95833 q 4.749997,-5.79167 13.04166,-5.79167 8.541663,0 13.083328,6.33333 4.541665,6.33333 4.541665,16.66666 v 0.875 q 0,9.875 -4.583332,16.375 -4.541665,6.49999 -12.916661,6.49999 z m -2.374999,-40.24998 q -7.000001,0 -10.499991,6.20833 v 21.58332 q 3.54166,6.125 10.583324,6.125 6.249997,0 9.124996,-4.91666 2.916666,-4.91667 2.916666,-11.625 v -0.875 q 0,-6.70833 -2.916666,-11.58333 -2.874999,-4.91666 -9.208329,-4.91666 z"
           style="font-family:Roboto;-inkscape-font-specification:Roboto"
           id="path1334" />
        <path
           d="m -37.058149,275.78871 q 0,-2.45833 -1.833333,-4.41666 -1.791666,-2 -8.33333,-3.33334 -7.541663,-1.54166 -11.999995,-4.45833 -4.458331,-2.95833 -4.458331,-8.58333 0,-5.33333 4.541664,-9.24999 4.583332,-3.91667 12.166662,-3.91667 8.08333,0 12.624995,4.125 4.541665,4.125 4.541665,9.95833 h -7.708331 q 0,-2.79167 -2.458332,-5.25 -2.458332,-2.5 -6.999997,-2.5 -4.791665,0 -6.874997,2.08334 -2.083333,2.08333 -2.083333,4.54166 0,2.45833 1.916666,4 1.958333,1.5 8.249997,2.91666 8.291663,1.875 12.333328,4.91667 4.083332,3.04166 4.083332,8.58333 0,5.95833 -4.791665,9.66666 -4.749998,3.70833 -12.624995,3.70833 -8.958329,0 -13.708327,-4.58333 -4.749998,-4.58333 -4.749998,-10.16666 h 7.749996 q 0.25,4.79166 3.666666,6.625 3.458331,1.79166 7.041663,1.79166 4.708332,0 7.208331,-1.83333 2.499999,-1.83333 2.499999,-4.625 z"
           style="font-family:Roboto;-inkscape-font-specification:Roboto"
           id="path1336" />
        <path
           d="m 8.6918397,287.74704 -0.1666666,-4.45833 q -4.4166648,5.29166 -13.1666611,5.29166 -6.624997,0 -10.708329,-3.91666 -4.083332,-3.91667 -4.083332,-12.91666 v -29.08332 h 7.708331 v 29.16665 q 0,6.08333 2.5416652,8.16666 2.5833322,2.04167 5.7499976,2.04167 8.7083297,0 11.7499951,-6.54167 v -32.83331 h 7.7499971 v 45.08331 z"
           style="font-family:Roboto;-inkscape-font-specification:Roboto"
           id="path1338" />
        <path
           d="m 36.150141,223.74707 v 63.99997 h -7.749997 v -63.99997 z"
           style="font-family:Roboto;-inkscape-font-specification:Roboto"
           id="path1340" />
        <path
           d="m 76.358466,287.74704 q -0.75,-1.625 -1.083333,-4.75 -2.166666,2.29167 -5.416665,3.95833 -3.249998,1.625 -7.416663,1.625 -6.916664,0 -11.083329,-3.875 -4.166665,-3.87499 -4.166665,-9.49999 0,-7.25 5.499998,-11 5.499998,-3.79166 14.79166,-3.79166 h 7.624997 v -3.58333 q 0,-4 -2.416665,-6.375 -2.374999,-2.41667 -7.083331,-2.41667 -4.374998,0 -7.08333,2.16667 -2.666666,2.125 -2.666666,4.95833 h -7.70833 q 0,-4.83333 4.874998,-9.08333 4.874998,-4.25 13.041661,-4.25 7.333331,0 12.041662,3.75 4.708331,3.75 4.708331,11.33333 v 20.24999 q 0,6.25 1.583333,9.91666 v 0.66667 z m -12.791662,-5.91666 q 4.166665,0 7.208331,-2.08334 3.083332,-2.08333 4.333331,-4.62499 v -9.29167 h -7.166663 q -12.999995,0.25 -12.999995,8.33333 0,3.20833 2.166666,5.45833 2.166666,2.20834 6.45833,2.20834 z"
           style="font-family:Roboto;-inkscape-font-specification:Roboto"
           id="path1342" />
        <path
           d="m 114.02513,287.74704 q -2.625,0.83333 -5.95833,0.83333 -4.29167,0 -7.33334,-2.625 -3.041661,-2.625 -3.041661,-9.41666 v -27.95832 h -8.249996 v -5.91666 h 8.249996 V 231.7054 h 7.708331 v 10.95833 h 8.41666 v 5.91666 h -8.41666 v 27.99999 q 0,3.45833 1.5,4.41666 1.5,0.95834 3.45833,0.95834 1.45833,0 3.625,-0.5 z"
           style="font-family:Roboto;-inkscape-font-specification:Roboto"
           id="path1344" />
        <path
           d="m 158.52511,279.87204 q -2.20833,3.33334 -6.25,6.04167 -4.04166,2.66666 -10.70833,2.66666 -9.41666,0 -15.08332,-6.12499 -5.625,-6.125 -5.625,-15.66666 v -1.75 q 0,-7.375 2.79166,-12.54167 2.83334,-5.20833 7.33333,-7.91666 4.5,-2.75 9.58333,-2.75 9.66667,0 14.08333,6.33333 4.45833,6.29167 4.45833,15.75 v 3.45833 h -30.49999 q 0.16667,6.20833 3.66667,10.58333 3.54166,4.33333 9.70833,4.33333 4.08333,0 6.91666,-1.66667 2.83333,-1.66666 4.95833,-4.45833 z m -17.95833,-31.70832 q -4.58333,0 -7.74999,3.33333 -3.16667,3.33334 -3.95834,9.58333 h 22.54166 v -0.58333 q -0.29166,-4.5 -2.625,-8.41666 -2.29166,-3.91667 -8.20833,-3.91667 z"
           style="font-family:Roboto;-inkscape-font-specification:Roboto"
           id="path1346" />
        <path
           d="m 197.19175,287.74704 -0.375,-4.83333 q -4.625,5.66666 -12.875,5.66666 -7.91666,0 -12.79166,-6.41666 -4.875,-6.41667 -4.95833,-16.12499 v -1.20834 q 0,-10.33333 4.875,-16.66666 4.91666,-6.33333 12.95833,-6.33333 7.95833,0 12.49999,5.33333 v -23.41665 h 7.75 v 63.99997 z m -23.24999,-22.04166 q 0,6.70833 2.83333,11.54166 2.83333,4.79167 9.08333,4.79167 7.16666,0 10.66666,-6.54167 v -20.74999 q -3.45833,-6.41666 -10.58333,-6.41666 -6.29166,0 -9.16666,4.91666 -2.83333,4.875 -2.83333,11.58333 z"
           style="font-family:Roboto;-inkscape-font-specification:Roboto"
           id="path1348" />
        <path
           d="m -266.39139,380.09838 q 0,-3.04167 -2.08334,-5.04167 -2.08333,-2.04166 -10.12499,-4.625 -8,-2.62499 -13.83333,-6.74999 -6.125,-4.29167 -6.125,-12.20833 0,-7.625 6.29167,-12.29166 6.29166,-4.66667 16.12499,-4.66667 10.08333,0 16.16666,5.29167 6.08333,5.25 6.08333,13.41666 h -12.49999 q 0,-3.83333 -2.45834,-6.29167 -2.45833,-2.45833 -7.49999,-2.45833 -4.91667,0 -7.33333,2.08333 -2.375,2.04167 -2.375,4.95834 0,2.99999 3.08333,4.99999 3.08333,2 8.95833,3.79167 9.95833,3.04166 15.04166,7.625 5.125,4.58333 5.125,12.08332 0,7.95833 -6,12.41667 -6,4.41666 -15.99999,4.41666 -6.04167,0 -11.66666,-2.125 -5.625,-2.125 -9.25,-6.54166 -3.625,-4.41667 -3.625,-11.29166 h 12.54166 q 0,5.54166 3.29167,7.79166 3.33333,2.25 8.70833,2.25 4.83333,0 7.12499,-1.95833 2.33334,-1.95834 2.33334,-4.875 z"
           style="font-weight:bold;font-family:Roboto;-inkscape-font-specification:'Roboto Bold'"
           id="path1350" />
        <path
           d="m -209.30808,388.14004 q -2.20833,3.33333 -6.25,6.04166 -4.04166,2.66667 -10.70833,2.66667 -9.41666,0 -15.08333,-6.125 -5.62499,-6.12499 -5.62499,-15.66666 v -1.75 q 0,-7.37499 2.79166,-12.54166 2.83333,-5.20833 7.33333,-7.91666 4.5,-2.75 9.58333,-2.75 9.66666,0 14.08333,6.33333 4.45833,6.29166 4.45833,15.74999 v 3.45834 h -30.49999 q 0.16667,6.20833 3.66667,10.58332 3.54166,4.33334 9.70833,4.33334 4.08333,0 6.91666,-1.66667 2.83333,-1.66667 4.95833,-4.45833 z m -17.95833,-31.70832 q -4.58333,0 -7.74999,3.33333 -3.16667,3.33333 -3.95834,9.58333 h 22.54166 v -0.58333 q -0.29167,-4.5 -2.625,-8.41666 -2.29166,-3.91667 -8.20833,-3.91667 z"
           style="font-family:Roboto;-inkscape-font-specification:Roboto"
           id="path1352" />
        <path
           d="m -163.59976,350.93172 v 62.41664 h -7.75 v -21.49999 q -4.625,5 -12.41666,5 -8.33333,0 -13.125,-6.5 -4.75,-6.49999 -4.75,-16.37499 v -0.875 q 0,-10.33333 4.75,-16.66666 4.75,-6.33333 13.20833,-6.33333 8,0 12.66666,5.375 l 0.33334,-4.54167 z m -30.29166,23.04166 q 0,6.70833 2.875,11.625 2.91667,4.91666 9.16666,4.91666 6.875,0 10.5,-6.04166 v -22.125 q -3.625,-5.91666 -10.41666,-5.91666 -6.33333,0 -9.25,5 -2.875,4.95833 -2.875,11.70833 z"
           style="font-family:Roboto;-inkscape-font-specification:Roboto"
           id="path1354" />
        <path
           d="m -123.26644,396.01504 -0.16667,-4.45833 q -4.41666,5.29166 -13.16666,5.29166 -6.625,0 -10.70833,-3.91666 -4.08333,-3.91667 -4.08333,-12.91667 v -29.08332 h 7.70833 v 29.16666 q 0,6.08333 2.54166,8.16666 2.58334,2.04167 5.75,2.04167 8.70833,0 11.75,-6.54167 v -32.83332 h 7.74999 v 45.08332 z"
           style="font-family:Roboto;-inkscape-font-specification:Roboto"
           id="path1356" />
        <path
           d="m -68.516471,388.14004 q -2.208333,3.33333 -6.249998,6.04166 -4.041665,2.66667 -10.708329,2.66667 -9.416662,0 -15.083322,-6.125 -5.625,-6.12499 -5.625,-15.66666 v -1.75 q 0,-7.37499 2.79166,-12.54166 2.83334,-5.20833 7.333333,-7.91666 4.499999,-2.75 9.58333,-2.75 9.666662,0 14.083327,6.33333 4.458332,6.29166 4.458332,15.74999 v 3.45834 h -30.499988 q 0.166667,6.20833 3.666666,10.58332 3.541665,4.33334 9.708329,4.33334 4.083331,0 6.916664,-1.66667 2.833332,-1.66667 4.958331,-4.45833 z m -17.958326,-31.70832 q -4.583332,0 -7.749997,3.33333 -3.166665,3.33333 -3.958332,9.58333 h 22.541658 v -0.58333 q -0.291667,-4.5 -2.624999,-8.41666 -2.291666,-3.91667 -8.20833,-3.91667 z"
           style="font-family:Roboto;-inkscape-font-specification:Roboto"
           id="path1358" />
        <path
           d="m -40.224813,356.59839 q -3.708332,0 -6.541664,2 -2.833332,2 -4.458331,5.20833 v 32.20832 h -7.70833 v -45.08332 h 7.291663 l 0.25,5.625 q 5.124998,-6.45833 13.458328,-6.45833 6.624997,0 10.499995,3.70833 3.916665,3.70833 3.958332,12.45833 v 29.74999 h -7.749997 v -29.62499 q 0,-5.29166 -2.333332,-7.54166 -2.291666,-2.25 -6.666664,-2.25 z"
           style="font-family:Roboto;-inkscape-font-specification:Roboto"
           id="path1360" />
        <path
           d="m 6.2334902,390.51504 q 4.1249978,0 7.2083308,-2.45833 3.124998,-2.45833 3.416665,-6.29167 h 7.33333 q -0.291667,6.04167 -5.541664,10.58333 -5.249998,4.5 -12.4166618,4.5 -10.1666624,0 -15.1249937,-6.70833 -4.9166645,-6.70833 -4.9166645,-15.79166 v -1.75 q 0,-9.08333 4.9166645,-15.79166 4.9583313,-6.70833 15.1249937,-6.70833 7.9166638,0 12.7916618,4.70833 4.874997,4.66667 5.166664,11.625 h -7.33333 q -0.291667,-4.16667 -3.166666,-7.08333 -2.833332,-2.91667 -7.4583298,-2.91667 -4.749998,0 -7.4583302,2.41667 -2.6666656,2.41666 -3.7916651,6.12499 -1.0833329,3.70834 -1.0833329,7.625 v 1.75 q 0,3.95833 1.0833329,7.66666 1.0833329,3.70833 3.7499984,6.125 2.7083322,2.375 7.4999969,2.375 z"
           style="font-family:Roboto;-inkscape-font-specification:Roboto"
           id="path1362" />
        <path
           d="m 32.900154,338.97339 q 0,-1.87499 1.125,-3.16666 1.166666,-1.29167 3.416665,-1.29167 2.208332,0 3.374999,1.29167 1.208332,1.29167 1.208332,3.16666 0,1.79167 -1.208332,3.08334 -1.166667,1.25 -3.374999,1.25 -2.249999,0 -3.416665,-1.25 -1.125,-1.29167 -1.125,-3.08334 z m 8.33333,11.95833 v 45.08332 h -7.749997 v -45.08332 z"
           style="font-family:Roboto;-inkscape-font-specification:Roboto"
           id="path1364" />
        <path
           d="m 72.316813,356.59839 q -3.708332,0 -6.541664,2 -2.833332,2 -4.458331,5.20833 v 32.20832 h -7.70833 v -45.08332 h 7.291663 l 0.25,5.625 q 5.124998,-6.45833 13.458328,-6.45833 6.624997,0 10.499995,3.70833 3.916665,3.70833 3.958332,12.45833 v 29.74999 h -7.749997 v -29.62499 q 0,-5.29166 -2.333332,-7.54166 -2.291666,-2.25 -6.666664,-2.25 z"
           style="font-family:Roboto;-inkscape-font-specification:Roboto"
           id="path1366" />
        <path
           d="m 117.85845,413.8067 q -3.5,0 -8.58333,-1.70834 -5.08333,-1.70833 -8.125,-6.12499 l 4.04167,-4.58333 q 5,6.08333 12.08333,6.08333 5.45833,0 8.70833,-3.08334 3.25,-3.04166 3.25,-8.95833 v -3.95833 q -4.58334,5.375 -12.625,5.375 -8.125,0 -12.91666,-6.5 -4.791666,-6.49999 -4.791666,-16.37499 v -0.875 q 0,-10.33333 4.749996,-16.66666 4.79167,-6.33333 13.04166,-6.33333 8.29167,0 12.875,5.83333 l 0.375,-5 h 7 v 44.12498 q 0,8.95833 -5.33334,13.83333 -5.33333,4.91667 -13.74999,4.91667 z m -11.25,-39.83332 q 0,6.70833 2.79167,11.54166 2.83333,4.79167 9.08333,4.79167 7.33333,0 10.75,-6.66667 v -20.54166 q -1.45834,-2.79166 -4.04167,-4.62499 -2.58333,-1.875 -6.625,-1.875 -6.29166,0 -9.12499,4.91666 -2.83334,4.875 -2.83334,11.58333 z"
           style="font-family:Roboto;-inkscape-font-specification:Roboto"
           id="path1368" />
        <path
           d="m -285.34972,482.86638 v 21.41665 h -12.54166 v -60.66664 h 23.70832 q 10.75,0 16.75,5.66667 6.04166,5.66666 6.04166,14.37499 0,8.79166 -6.04166,14 -6,5.20833 -16.75,5.20833 z m 0,-29.12499 v 19.04166 h 11.16666 q 5.375,0 7.75,-2.54167 2.375,-2.54166 2.375,-6.49999 0,-3.95834 -2.375,-6.95834 -2.375,-3.04166 -7.75,-3.04166 z"
           style="font-weight:bold;font-family:Roboto;-inkscape-font-specification:'Roboto Bold'"
           id="path1370" />
        <path
           d="m -242.30807,447.24139 q 0,-1.875 1.125,-3.16666 1.16666,-1.29167 3.41666,-1.29167 2.20834,0 3.375,1.29167 1.20834,1.29166 1.20834,3.16666 0,1.79167 -1.20834,3.08333 -1.16666,1.25 -3.375,1.25 -2.25,0 -3.41666,-1.25 -1.125,-1.29166 -1.125,-3.08333 z m 8.33333,11.95833 v 45.08331 h -7.75 v -45.08331 z"
           style="font-family:Roboto;-inkscape-font-specification:Roboto"
           id="path1372" />
        <path
           d="m -201.01642,505.11637 q -8.125,0 -12.875,-5.20833 v 21.70832 h -7.75 v -62.41664 h 7.08333 l 0.375,4.95833 q 4.75,-5.79166 13.04167,-5.79166 8.54166,0 13.08332,6.33333 4.54167,6.33333 4.54167,16.66666 v 0.875 q 0,9.87499 -4.58333,16.37499 -4.54167,6.5 -12.91666,6.5 z m -2.375,-40.24999 q -7,0 -10.5,6.20834 v 21.58332 q 3.54167,6.125 10.58333,6.125 6.25,0 9.125,-4.91667 2.91666,-4.91666 2.91666,-11.62499 v -0.875 q 0,-6.70833 -2.91666,-11.58333 -2.875,-4.91667 -9.20833,-4.91667 z"
           style="font-family:Roboto;-inkscape-font-specification:Roboto"
           id="path1374" />
        <path
           d="m -138.01645,496.40804 q -2.20833,3.33333 -6.25,6.04166 -4.04166,2.66667 -10.70832,2.66667 -9.41667,0 -15.08333,-6.125 -5.625,-6.125 -5.625,-15.66666 v -1.75 q 0,-7.375 2.79167,-12.54166 2.83333,-5.20833 7.33333,-7.91666 4.49999,-2.75 9.58333,-2.75 9.66666,0 14.08332,6.33333 4.45833,6.29166 4.45833,15.74999 v 3.45833 h -30.49998 q 0.16666,6.20833 3.66666,10.58333 3.54167,4.33333 9.70833,4.33333 4.08333,0 6.91667,-1.66666 2.83333,-1.66667 4.95833,-4.45833 z m -17.95832,-31.70832 q -4.58334,0 -7.75,3.33333 -3.16667,3.33333 -3.95833,9.58333 h 22.54165 v -0.58333 q -0.29166,-4.5 -2.62499,-8.41667 -2.29167,-3.91666 -8.20833,-3.91666 z"
           style="font-family:Roboto;-inkscape-font-specification:Roboto"
           id="path1376" />
        <path
           d="m -120.05813,440.28306 v 63.99997 h -7.74999 v -63.99997 z"
           style="font-family:Roboto;-inkscape-font-specification:Roboto"
           id="path1378" />
        <path
           d="m -107.64147,447.24139 q 0,-1.875 1.125,-3.16666 1.16666,-1.29167 3.41666,-1.29167 2.20834,0 3.375002,1.29167 1.208332,1.29166 1.208332,3.16666 0,1.79167 -1.208332,3.08333 -1.166662,1.25 -3.375002,1.25 -2.25,0 -3.41666,-1.25 -1.125,-1.29166 -1.125,-3.08333 z m 8.333328,11.95833 v 45.08331 h -7.749998 v -45.08331 z"
           style="font-family:Roboto;-inkscape-font-specification:Roboto"
           id="path1380" />
        <path
           d="m -68.224813,464.86638 q -3.708332,0 -6.541664,2 -2.833332,2 -4.458331,5.20833 v 32.20832 h -7.70833 v -45.08331 h 7.291663 l 0.25,5.625 q 5.124998,-6.45833 13.458328,-6.45833 6.624997,0 10.499995,3.70833 3.916665,3.70833 3.958332,12.45833 v 29.74998 h -7.749997 v -29.62498 q 0,-5.29167 -2.333332,-7.54167 -2.291666,-2.25 -6.666664,-2.25 z"
           style="font-family:Roboto;-inkscape-font-specification:Roboto"
           id="path1382" />
        <path
           d="m -4.1415172,496.40804 q -2.2083324,3.33333 -6.2499978,6.04166 -4.041665,2.66667 -10.708328,2.66667 -9.416663,0 -15.083327,-6.125 -5.624998,-6.125 -5.624998,-15.66666 v -1.75 q 0,-7.375 2.791665,-12.54166 2.833333,-5.20833 7.333331,-7.91666 4.499998,-2.75 9.583329,-2.75 9.666663,0 14.0833274,6.33333 4.4583315,6.29166 4.4583315,15.74999 v 3.45833 H -34.058171 q 0.166666,6.20833 3.666665,10.58333 3.541665,4.33333 9.708329,4.33333 4.083332,0 6.916664,-1.66666 2.833332,-1.66667 4.9583311,-4.45833 z M -22.099843,464.69972 q -4.583331,0 -7.749997,3.33333 -3.166665,3.33333 -3.958331,9.58333 h 22.541657 v -0.58333 q -0.291667,-4.5 -2.624999,-8.41667 -2.291666,-3.91666 -8.20833,-3.91666 z"
           style="font-family:Roboto;-inkscape-font-specification:Roboto"
           id="path1384" />
        <path
           d="m -297.89138,612.55103 v -60.66664 h 40.58332 v 10.125 h -28.04166 v 14.45832 h 23.95832 v 9.79167 h -23.95832 v 16.20832 h 28.16666 v 10.08333 z"
           style="font-weight:bold;font-family:Roboto;-inkscape-font-specification:'Roboto Bold'"
           id="path1386" />
        <path
           d="m -230.72474,573.13438 q -3.70833,0 -6.54166,2 -2.83334,2 -4.45834,5.20833 v 32.20832 h -7.70833 v -45.08331 h 7.29167 l 0.25,5.625 q 5.125,-6.45834 13.45833,-6.45834 6.62499,0 10.49999,3.70834 3.91667,3.70833 3.95833,12.45832 v 29.74999 h -7.74999 v -29.62499 q 0,-5.29166 -2.33334,-7.54166 -2.29166,-2.25 -6.66666,-2.25 z"
           style="font-family:Roboto;-inkscape-font-specification:Roboto"
           id="path1388" />
        <path
           d="m -185.18309,630.34269 q -3.5,0 -8.58333,-1.70833 -5.08333,-1.70833 -8.125,-6.125 l 4.04167,-4.58333 q 4.99999,6.08333 12.08332,6.08333 5.45834,0 8.70833,-3.08333 3.25,-3.04167 3.25,-8.95833 v -3.95833 q -4.58333,5.375 -12.62499,5.375 -8.125,0 -12.91666,-6.5 -4.79167,-6.5 -4.79167,-16.375 v -0.87499 q 0,-10.33333 4.75,-16.66666 4.79167,-6.33334 13.04166,-6.33334 8.29166,0 12.875,5.83334 l 0.375,-5 h 6.99999 v 44.12498 q 0,8.95833 -5.33333,13.83333 -5.33333,4.91666 -13.74999,4.91666 z m -11.25,-39.83332 q 0,6.70834 2.79167,11.54167 2.83333,4.79166 9.08333,4.79166 7.33333,0 10.74999,-6.66666 v -20.54166 q -1.45833,-2.79167 -4.04166,-4.625 -2.58333,-1.875 -6.625,-1.875 -6.29166,0 -9.125,4.91667 -2.83333,4.87499 -2.83333,11.58333 z"
           style="font-family:Roboto;-inkscape-font-specification:Roboto"
           id="path1390" />
        <path
           d="m -154.34977,555.50939 q 0,-1.875 1.125,-3.16667 1.16667,-1.29166 3.41667,-1.29166 2.20833,0 3.37499,1.29166 1.20834,1.29167 1.20834,3.16667 0,1.79167 -1.20834,3.08333 -1.16666,1.25 -3.37499,1.25 -2.25,0 -3.41667,-1.25 -1.125,-1.29166 -1.125,-3.08333 z m 8.33333,11.95833 v 45.08331 h -7.75 v -45.08331 z"
           style="font-family:Roboto;-inkscape-font-specification:Roboto"
           id="path1392" />
        <path
           d="m -114.93313,573.13438 q -3.70833,0 -6.54166,2 -2.83333,2 -4.45833,5.20833 v 32.20832 h -7.70833 v -45.08331 h 7.29166 l 0.25,5.625 q 5.125,-6.45834 13.45833,-6.45834 6.625,0 10.5,3.70834 3.91666,3.70833 3.958327,12.45832 v 29.74999 h -7.749997 v -29.62499 q 0,-5.29166 -2.33333,-7.54166 -2.29167,-2.25 -6.66667,-2.25 z"
           style="font-family:Roboto;-inkscape-font-specification:Roboto"
           id="path1394" />
        <path
           d="m -50.849815,604.67604 q -2.208332,3.33333 -6.249997,6.04166 -4.041665,2.66667 -10.708329,2.66667 -9.416663,0 -15.083327,-6.125 -5.624998,-6.125 -5.624998,-15.66666 v -1.75 q 0,-7.375 2.791666,-12.54166 2.833332,-5.20833 7.33333,-7.91667 4.499998,-2.75 9.583329,-2.75 9.666663,0 14.083328,6.33334 4.458331,6.29166 4.458331,15.74999 v 3.45833 h -30.499987 q 0.166667,6.20833 3.666665,10.58333 3.541665,4.33333 9.708329,4.33333 4.083332,0 6.916664,-1.66666 2.833332,-1.66667 4.958331,-4.45834 z m -17.958326,-31.70832 q -4.583331,0 -7.749997,3.33333 -3.166665,3.33333 -3.958331,9.58333 h 22.541657 v -0.58334 q -0.291666,-4.49999 -2.624999,-8.41666 -2.291666,-3.91666 -8.20833,-3.91666 z"
           style="font-family:Roboto;-inkscape-font-specification:Roboto"
           id="path1396" />
      </g>
    </g>
  </g>
</svg>
