<?xml version="1.0" encoding="UTF-8" standalone="no"?>
<svg
   width="456.38785mm"
   height="236.50418mm"
   viewBox="0 0 1724.9305 893.8741"
   aria-hidden="true"
   role="img"
   class="iconify iconify--twemoji"
   preserveAspectRatio="xMidYMid meet"
   version="1.1"
   id="svg38"
   sodipodi:docname="name_and_logo.svg"
   inkscape:version="1.1.2 (0a00cf5339, 2022-02-04)"
   xmlns:inkscape="http://www.inkscape.org/namespaces/inkscape"
   xmlns:sodipodi="http://sodipodi.sourceforge.net/DTD/sodipodi-0.dtd"
   xmlns:xlink="http://www.w3.org/1999/xlink"
   xmlns="http://www.w3.org/2000/svg"
   xmlns:svg="http://www.w3.org/2000/svg">
  <defs
     id="defs42" />
  <sodipodi:namedview
     id="namedview40"
     pagecolor="#ffffff"
     bordercolor="#666666"
     borderopacity="1.0"
     inkscape:pageshadow="2"
     inkscape:pageopacity="0.0"
     inkscape:pagecheckerboard="0"
     showgrid="false"
     inkscape:zoom="0.48319257"
     inkscape:cx="998.56668"
     inkscape:cy="502.90508"
     inkscape:window-width="1920"
     inkscape:window-height="1051"
     inkscape:window-x="0"
     inkscape:window-y="0"
     inkscape:window-maximized="1"
     inkscape:current-layer="layer2"
     fit-margin-top="20"
     fit-margin-left="20"
     fit-margin-right="20"
     fit-margin-bottom="20"
     units="mm"
     inkscape:document-units="mm" />
  <g
     inkscape:groupmode="layer"
     id="layer2"
     inkscape:label="Layer 1"
     transform="translate(1485.9639,-98.454342)">
    <g
       id="layer2-5"
       inkscape:label="Layer 1"
       transform="translate(-799.36602,202.30501)">
      <circle
         style="fill:#ffffff;fill-opacity:1;stroke:#6d451e;stroke-width:8;stroke-linejoin:round;stroke-opacity:1"
         id="path854"
         cx="175.86726"
         cy="224.73988"
         r="249" />
      <g
         id="g30643"
         transform="translate(54.543871,243.41982)"
         inkscape:label="icon">
        <g
           id="g16875"
           inkscape:label="left"
           transform="translate(-116.19297,-899.60472)">
          <path
             id="path3574"
             style="fill:#6cba0e;fill-opacity:1;stroke:none;stroke-width:0.999998px;stroke-linecap:butt;stroke-linejoin:miter;stroke-opacity:1"
             d="m 237.51636,670.01016 c 0,0 -61.4081,42.46266 -52.19382,75.61433 7.50874,27.01538 52.19382,35.57515 52.19382,35.57515 0,0 44.68507,-8.55977 52.19381,-35.57515 9.21428,-33.15167 -52.19381,-75.61433 -52.19381,-75.61433 z"
             inkscape:label="leaf big top" />
          <path
             id="path7063"
             style="fill:#6cba0e;fill-opacity:1;stroke:none;stroke-width:0.999998px;stroke-linecap:butt;stroke-linejoin:miter;stroke-opacity:1"
             d="m 70.616051,864.88066 c 0,0 64.536969,37.53682 90.628609,15.10554 21.26213,-18.2793 10.01735,-62.36537 10.01735,-62.36537 0,0 -26.74097,-36.80957 -54.38613,-32.12372 -33.924492,5.7502 -46.259829,79.38355 -46.259829,79.38355 z"
             inkscape:label="leaf big bottom" />
          <path
             id="path20107"
             style="fill:#6cba0e;fill-opacity:1;stroke:none;stroke-width:1px;stroke-linecap:butt;stroke-linejoin:miter;stroke-opacity:1"
             d="m 67.862194,924.26232 c 0,0 27.093948,11.49863 36.192826,1.43809 7.41469,-8.19836 0.84199,-24.88718 0.84199,-24.88718 0,0 -12.274855,-13.07845 -22.856644,-9.88209 -12.985332,3.92239 -14.178172,33.33118 -14.178172,33.33118 z"
             inkscape:label="leaf small bottom" />
          <path
             id="path25632"
             style="fill:#6cba0e;fill-opacity:1;stroke:none;stroke-width:1px;stroke-linecap:butt;stroke-linejoin:miter;stroke-opacity:1"
             d="m 165.01346,656.1849 c 0,0 -19.11938,22.37745 -12.2635,34.08219 5.58687,9.53822 23.48005,8.29264 23.48005,8.29264 0,0 16.16621,-7.7699 16.30258,-18.82306 0.16732,-13.56377 -27.51913,-23.55177 -27.51913,-23.55177 z"
             inkscape:label="leaf small top" />
          <path
             id="path26300"
             style="fill:#a6c742;fill-opacity:1;stroke:none;stroke-width:1px;stroke-linecap:butt;stroke-linejoin:miter;stroke-opacity:1"
             d="m 114.80179,706.78601 c 0,0 -13.05079,40.67966 2.69081,52.50629 12.82785,9.63755 36.08543,-2.06259 36.08543,-2.06259 0,0 17.28728,-19.46681 11.27245,-34.34157 -7.38105,-18.25341 -50.04869,-16.10213 -50.04869,-16.10213 z"
             inkscape:label="leaf medium top" />
          <path
             id="path28371"
             style="fill:#6cba0e;fill-opacity:1;stroke:none;stroke-width:1px;stroke-linecap:butt;stroke-linejoin:miter;stroke-opacity:1"
             d="m 61.649099,761.53434 c 0,0 6.369006,28.73562 19.843011,30.30254 10.979999,1.27687 20.75158,-13.7642 20.75158,-13.7642 0,0 3.52135,-17.58743 -5.224944,-24.34711 -10.732945,-8.29505 -35.369647,7.80877 -35.369647,7.80877 z"
             inkscape:label="leaf small middle" />
          <path
             id="path28397"
             style="fill:#a6c742;fill-opacity:1;stroke:none;stroke-width:1px;stroke-linecap:butt;stroke-linejoin:miter;stroke-opacity:1"
             d="m 117.90283,953.65847 c 0,0 42.02894,7.66329 51.71354,-9.47951 7.89201,-13.96969 -6.72638,-35.51293 -6.72638,-35.51293 0,0 -21.54492,-14.61585 -35.51371,-6.7222 -17.14165,9.68662 -9.47345,51.71464 -9.47345,51.71464 z"
             inkscape:label="leaf medium bottom" />
        </g>
        <path
           style="display:inline;fill:#6d451e;fill-opacity:1;stroke-width:1"
           d="m 70.760679,204.42738 c -4.28342,-2.1125 -5.28596,-5.4357 -4.64934,-15.4115 0.70031,-10.9738 3.44025,-21.1977 8.45794,-31.5604 7.49926,-15.4877 19.27112,-28.1919 38.408541,-41.4507 13.89802,-9.6288 23.19628,-17.363997 27.76453,-23.096947 l 3.72276,-4.67186 -15.54967,-0.46146 c -16.15257,-0.47937 -18.3473,-0.98292 -21.03993,-4.82714 -1.86579,-2.66376 -1.82917,-8.03861 0.0733,-10.75479 2.90058,-4.14109 6.22606,-4.72244 27.01392,-4.72244 21.3893,0 19.49442,0.56585 20.86215,-6.22976 l 0.60369,-2.99952 h -26.40641 c -30.193031,0 -31.866171,-0.30189 -34.341201,-6.19654 -1.27969,-3.04778 -1.30493,-3.96591 -0.19752,-7.18591 2.28255,-6.63705 3.68083,-6.91892 34.337631,-6.92058 h 26.60751 l -0.60369,-2.99951 c -1.36773,-6.79561 0.52715,-6.22977 -20.86215,-6.22977 -20.78786,0 -24.11334,-0.58135 -27.01392,-4.72253 -2.43691,-3.47916 -1.93421,-8.61147 1.18582,-12.10632 l 2.69083,-3.0140905 16.35153,-0.46146 16.35154,-0.46146 -4.2495,-5.21265 c -2.33722,-2.86695997 -5.93752,-6.65753 -8.00065,-8.42349 l -3.75116,-3.21085 7.90049,-5.6511595 c 4.34526,-3.10814 8.2582,-5.65115 8.69542,-5.65115 1.44638,0 11.67317,11.5967595 16.10289,18.2600095 5.54378,8.33904 10.30688,18.6443605 12.80436,27.7031705 2.95968,10.73531 2.93865,33.53772 -0.041,44.48374 -4.46433,16.40001 -15.23043,34.173567 -26.70601,44.088267 -2.91876,2.5218 -11.59607,9.1041 -19.28293,14.6274 -7.68684,5.5234 -15.78553,11.7245 -17.99709,13.7805 -4.55556,4.2349 -11.865191,12.3872 -11.867281,13.2353 -7.5e-4,0.3093 6.193441,0.438 13.764881,0.2861 10.50788,-0.2108 14.53255,0.044 17.00376,1.0766 7.77253,3.2476 8.66354,13.3005 1.55123,17.5018 -2.21845,1.3105 -5.57703,1.5407 -22.47725,1.5407 -21.970621,0 -20.013711,-0.5701 -21.382301,6.2298 l -0.60369,2.9995 h 25.944951 c 27.83334,0 30.57166,0.3847 33.60994,4.7225 3.18509,4.5474 1.33432,11.8079 -3.60772,14.153 -4.50102,2.1359 -66.835261,2.0896 -71.179211,-0.053 z m 91.348421,-0.2706 c -3.7594,-2.353 -4.89643,-4.5395 -4.93647,-9.4927 -0.0576,-7.1254 -2.49698,-18.0284 -5.68151,-25.3942 -4.16769,-9.6399 -9.1555,-17.0001 -16.55745,-24.4329 l -6.13243,-6.1579 7.44468,-5.2401 c 4.09457,-2.8821 7.93011,-5.4264 8.52342,-5.6541 1.47477,-0.5659 10.54877,9.4057 16.25762,17.8659 9.40604,13.9391 14.40122,28.3764 15.28715,44.1839 0.51982,9.2747 0.51267,9.3157 -2.14117,12.2608 -3.45731,3.8367 -7.99012,4.6112 -12.06384,2.0613 z M 90.770709,110.18168 C 80.178969,98.622703 72.331929,84.686853 68.382699,70.422033 c -1.64091,-5.92704 -1.96706,-9.63001 -1.96706,-22.33337 0,-18.08838 1.43524,-24.63609 8.59792,-39.2244805 8.29193,-16.8884 16.7336,-25.6295995 42.105521,-43.5994695 26.61196,-18.84814 38.07302,-36.28674 39.79532,-60.55065 0.51847,-7.304373 0.89092,-8.628563 3.13251,-11.137343 2.15378,-2.41049 3.20444,-2.84731 6.84866,-2.84731 3.73456,0 4.67772,0.41761 7.12235,3.15362 l 2.81775,3.15362 -0.52156,9.305913 c -0.62994,11.2397 -3.24188,21.43875 -8.04305,31.40633 -8.77809,18.22392 -17.31211,27.26046 -42.56763,45.07426 -19.10146,13.4730495 -26.917671,21.8429995 -33.588371,35.9679 -5.05733,10.70873 -6.38875,17.09013 -6.30519,30.22053 0.0626,9.82485 0.43212,12.63203 2.49099,18.92003 3.4858,10.64588 10.11187,21.71672 17.884111,29.88094 3.68407,3.869827 6.59921,7.310027 6.47808,7.644927 -0.32022,0.8853 -14.493571,10.9277 -15.422851,10.9277 -0.4318,0 -3.34307,-2.7916 -6.46949,-6.2035 z m 0.46816,-147.181927 c -15.46478,-16.9797 -23.91772,-35.94081 -25.13738,-56.38667 -0.99446,-16.670593 -1.79774,-16.345133 40.342301,-16.345133 35.3319,0 37.32361,0.26001 39.55802,5.164 2.76969,6.078793 -9.2e-4,12.474563 -6.14386,14.180553 -1.95723,0.54359 -14.20301,0.95177 -28.64212,0.95471 l -25.223111,0.006 0.60369,2.99952 c 1.36783,6.79612 -0.5344,6.22976 20.923761,6.22976 21.06833,0 24.21706,0.60213 26.61908,5.09035 1.59392,2.97825 1.38533,7.4373 -0.48116,10.28591 -2.6775,4.0864 -6.77769,5.06277 -20.63808,4.91454 -6.91638,-0.074 -13.122671,-0.10117 -13.791751,-0.0604 -1.71773,0.10456 1.765271,4.79305 8.775241,11.81244 l 5.73165,5.73937 -7.56812,5.21849 c -4.16246,2.87018 -8.031561,5.39815 -8.597981,5.61773 -0.56642,0.2196 -3.415,-2.21954 -6.33018,-5.42029 z"
           id="path5126"
           inkscape:label="trunk" />
        <use
           x="0"
           y="0"
           xlink:href="#g16875"
           id="use16969"
           transform="matrix(-1,0,0,1,242.64678,2.5319295e-6)"
           width="100%"
           height="100%"
           inkscape:label="right" />
      </g>
    </g>
    <text
       xml:space="preserve"
       style="font-size:85.3333px;line-height:1.25;font-family:sans-serif;letter-spacing:0px;word-spacing:0px"
       x="-1415.79"
       y="898.94623"
       id="text2400"><tspan
         sodipodi:role="line"
         id="tspan2398"
         x="-1415.79"
         y="898.94623"
         style="font-style:normal;font-variant:normal;font-weight:normal;font-stretch:normal;font-size:85.3333px;font-family:Roboto;-inkscape-font-specification:Roboto"><tspan
   style="font-style:normal;font-variant:normal;font-weight:bold;font-stretch:normal;font-family:Roboto;-inkscape-font-specification:'Roboto Bold'"
   id="tspan15826">E</tspan>ncapsulated <tspan
   style="font-style:normal;font-variant:normal;font-weight:bold;font-stretch:normal;font-family:Roboto;-inkscape-font-specification:'Roboto Bold'"
   id="tspan17520">S</tspan>equencing <tspan
   style="font-style:normal;font-variant:normal;font-weight:bold;font-stretch:normal;font-family:Roboto;-inkscape-font-specification:'Roboto Bold'"
   id="tspan19146">P</tspan>ipeline <tspan
   style="font-style:normal;font-variant:normal;font-weight:bold;font-stretch:normal;font-family:Roboto;-inkscape-font-specification:'Roboto Bold'"
   id="tspan21484">E</tspan>ngine</tspan></text>
  </g>
</svg>
